<svg width="15" height="14" viewBox="0 0 15 14" fill="none" xmlns="http://www.w3.org/2000/svg">
<path d="M14.7927 2.26387C14.7042 2.13633 14.5713 2.07256 14.4237 2.07256H4.35785L4.01839 0.398568C3.97411 0.159427 3.78224 0 3.56085 0H1.3617C1.09604 0 0.889404 0.223198 0.889404 0.510168C0.889404 0.797137 1.09604 1.02034 1.3617 1.02034H3.19186L5.11058 10.4903C5.15486 10.7295 5.34673 10.8889 5.56812 10.8889H13.0216C13.2873 10.8889 13.4939 10.6657 13.4939 10.3787C13.4939 10.0918 13.2873 9.86855 13.0216 9.86855H5.95186L5.71571 8.70473H13.2577C13.4791 8.70473 13.671 8.54531 13.7153 8.30617L14.896 2.69432C14.9108 2.55084 14.8813 2.39141 14.7927 2.26387Z" fill="white"/>
<path d="M11.3968 14C12.0416 14 12.5644 13.4776 12.5644 12.8333C12.5644 12.189 12.0416 11.6666 11.3968 11.6666C10.752 11.6666 10.2293 12.189 10.2293 12.8333C10.2293 13.4776 10.752 14 11.3968 14Z" fill="white"/>
<path d="M7.50529 14C8.15009 14 8.67281 13.4776 8.67281 12.8333C8.67281 12.189 8.15009 11.6666 7.50529 11.6666C6.86049 11.6666 6.33777 12.189 6.33777 12.8333C6.33777 13.4776 6.86049 14 7.50529 14Z" fill="white"/>
</svg>
